<?xml version="1.0" standalone="no"?>
<!DOCTYPE svg PUBLIC "-//W3C//DTD SVG 20010904//EN"
 "http://www.w3.org/TR/2001/REC-SVG-20010904/DTD/svg10.dtd">
<svg version="1.0" xmlns="http://www.w3.org/2000/svg"
 width="700.000000pt" height="700.000000pt" viewBox="0 0 700.000000 700.000000"
 preserveAspectRatio="xMidYMid meet">
<metadata>
Created by potrace 1.14, written by Peter Selinger 2001-2017
</metadata>
<g transform="translate(0.000000,700.000000) scale(0.100000,-0.100000)"
fill="#000000" stroke="none">
<path d="M1735 6761 c-118 -54 -212 -211 -269 -451 -29 -124 -54 -308 -58
-428 -2 -84 5 -101 39 -102 17 0 83 -67 139 -140 27 -36 56 -71 64 -78 21 -18
73 -41 82 -36 3 2 -3 30 -14 62 -31 88 -46 206 -43 328 9 285 118 483 249 450
39 -10 94 -76 125 -151 105 -252 64 -654 -83 -813 -42 -46 -97 -72 -148 -72
-71 1 -120 35 -228 160 -122 140 -175 192 -248 241 -159 106 -336 121 -447 36
-19 -15 -18 -16 30 -37 72 -31 141 -79 210 -147 82 -80 120 -133 319 -445 33
-51 63 -95 66 -98 3 -3 14 -16 23 -30 31 -46 131 -141 177 -168 35 -21 57 -26
105 -26 201 2 372 260 431 651 3 21 8 49 11 63 13 63 11 439 -3 540 -44 310
-149 555 -282 657 -72 55 -171 69 -247 34z"/>
<path d="M738 5626 c-234 -97 -419 -463 -484 -961 -3 -22 -7 -51 -10 -65 -13
-79 -19 -200 -19 -395 0 -222 9 -354 31 -453 3 -13 7 -43 10 -65 18 -134 87
-353 156 -496 101 -210 210 -322 351 -357 147 -38 266 18 386 180 123 166 248
544 287 868 2 24 7 52 9 63 5 23 17 189 19 249 1 32 -2 40 -14 38 -41 -10 -95
-1 -139 24 -51 27 -116 87 -259 237 -90 94 -135 124 -175 113 l-25 -6 37 -57
c43 -67 56 -100 82 -203 48 -194 44 -455 -12 -645 -103 -349 -332 -368 -444
-36 -13 38 -29 97 -35 130 -5 34 -13 73 -16 88 -6 36 -6 330 1 363 3 14 7 45
10 70 10 81 13 96 34 176 58 210 164 336 285 336 77 0 111 -26 312 -229 166
-168 200 -197 258 -224 61 -29 73 -31 133 -25 213 21 355 108 463 284 31 52
73 152 66 159 -2 2 -21 -7 -43 -21 -94 -62 -206 -76 -288 -35 -46 23 -122 89
-175 154 -13 17 -83 118 -154 225 -152 229 -225 328 -313 421 -108 115 -208
144 -325 95z"/>
<path d="M4690 4783 l0 -573 55 0 55 0 0 230 c0 127 3 230 8 231 4 0 68 2 142
3 167 4 211 16 270 76 127 127 126 430 -1 544 -56 51 -98 59 -326 61 l-203 2
0 -574z m443 411 c71 -52 91 -221 36 -310 -34 -55 -76 -68 -229 -68 l-135 -1
-3 204 -2 203 153 -4 c131 -4 157 -7 180 -24z"/>
<path d="M5456 5351 c-2 -3 -3 -261 -3 -574 l0 -567 306 2 306 3 0 65 -1 65
-204 2 c-113 2 -226 3 -251 3 l-45 0 2 188 c0 103 2 189 3 192 0 3 101 5 223
5 l222 0 1 67 2 68 -226 2 -226 3 0 170 0 170 241 3 241 2 0 68 -1 68 -293 0
c-162 0 -295 -2 -297 -5z"/>
<path d="M6150 5288 l0 -68 135 0 135 0 0 -505 0 -505 55 0 55 0 0 505 0 505
136 0 135 0 -2 68 -2 68 -323 0 -324 0 0 -68z"/>
<path d="M1679 3933 c0 -16 -2 -71 -4 -123 -2 -52 -6 -183 -10 -290 -3 -107
-8 -238 -10 -290 -2 -52 -7 -174 -10 -270 -3 -96 -8 -229 -10 -295 -3 -66 -7
-190 -10 -275 -9 -247 -14 -405 -20 -555 l-5 -140 308 0 c169 1 313 -1 319 -3
13 -4 13 -16 -3 -387 -10 -241 -11 -276 -13 -326 l-1 -46 -287 1 -288 1 -17
90 c-10 50 -19 98 -20 108 -1 9 -5 17 -9 17 -4 0 -8 -37 -9 -82 -3 -121 -7
-246 -15 -488 -4 -118 -8 -263 -10 -323 l-3 -107 422 0 c323 0 426 3 437 13
35 29 72 119 84 207 4 24 8 47 10 50 3 5 9 137 20 445 3 77 7 192 10 255 11
311 16 445 20 560 5 163 14 416 20 558 l5 112 -321 0 -320 0 5 103 c3 56 8
156 11 222 3 66 8 149 10 185 4 59 15 301 19 390 1 19 4 40 8 45 5 8 250 13
290 6 6 -1 5 -90 -6 -348 -3 -51 -1 -94 2 -94 4 -1 77 -2 163 -3 l155 -1 1 45
c0 25 3 140 7 255 3 116 9 296 12 400 3 105 7 238 8 298 l3 107 -473 0 -474 0
-1 -27z"/>
<path d="M2781 3890 c14 -53 20 -127 24 -293 3 -122 8 -282 10 -355 3 -74 7
-215 10 -315 3 -100 8 -247 10 -327 3 -80 7 -226 10 -325 3 -99 7 -247 10
-330 3 -82 7 -229 10 -325 3 -96 7 -247 10 -335 3 -88 7 -230 10 -315 2 -85 7
-238 10 -340 6 -176 11 -329 14 -432 l1 -48 145 0 c131 0 145 2 146 18 0 9 2
25 4 35 2 9 6 50 10 90 3 39 8 83 10 97 2 14 6 54 10 90 3 36 8 81 10 100 2
19 7 64 10 100 3 36 8 83 10 105 2 22 7 65 10 95 3 30 8 71 10 90 3 19 7 62
10 95 3 33 7 76 9 95 3 19 7 67 11 105 4 39 8 81 10 95 6 54 17 167 20 195 2
26 10 94 21 190 1 17 6 68 10 115 8 109 19 121 20 22 1 -42 4 -169 8 -282 7
-201 9 -271 21 -595 4 -88 8 -207 10 -265 1 -58 6 -197 10 -310 4 -113 8 -221
9 -240 l1 -35 148 -3 147 -3 1 33 c1 18 2 44 4 58 7 68 16 160 20 203 3 26 7
68 10 95 2 26 7 72 10 102 3 30 7 71 10 90 2 19 7 66 10 104 4 38 8 83 10 100
2 17 7 60 10 96 5 64 11 117 20 195 2 22 7 67 10 100 12 124 14 151 20 200 3
28 7 68 10 90 2 22 7 70 11 106 10 115 12 143 19 204 4 33 8 78 10 100 2 22 6
65 9 95 7 63 13 119 21 205 4 33 8 76 10 95 2 19 7 64 10 100 4 36 8 76 10 90
2 14 7 60 10 103 4 43 8 87 10 97 2 9 6 57 10 106 4 49 8 96 10 104 2 8 6 44
9 80 4 36 9 85 12 110 5 49 13 127 20 205 2 28 6 64 8 80 2 17 7 62 10 100 4
39 9 86 11 105 3 33 8 81 20 208 l5 52 -140 0 -140 0 -1 -42 c-2 -50 -7 -109
-13 -158 -2 -19 -7 -73 -11 -119 -4 -47 -8 -92 -10 -101 -2 -9 -6 -51 -9 -93
-4 -42 -9 -91 -11 -109 -6 -54 -17 -160 -20 -208 -2 -25 -6 -70 -9 -100 -3
-30 -8 -82 -11 -115 -3 -33 -8 -76 -10 -95 -2 -19 -7 -64 -10 -100 -3 -36 -8
-81 -10 -100 -3 -19 -7 -62 -10 -95 -5 -58 -8 -92 -20 -200 -3 -27 -7 -79 -11
-115 -3 -36 -7 -81 -9 -100 -2 -19 -6 -69 -9 -110 -4 -42 -8 -84 -10 -95 -2
-11 -7 -58 -11 -105 -4 -47 -9 -87 -11 -89 -2 -2 -4 45 -5 105 -1 60 -2 161
-4 224 -1 63 -5 252 -9 420 -4 168 -9 409 -12 535 -6 221 -9 402 -14 700 l-3
140 -128 0 -129 0 -4 -25 c-3 -14 -8 -52 -11 -85 -2 -33 -10 -109 -15 -170 -6
-60 -13 -132 -15 -160 -3 -27 -7 -70 -10 -95 -3 -25 -7 -74 -10 -110 -3 -36
-7 -85 -10 -110 -3 -25 -7 -70 -10 -100 -2 -30 -6 -73 -9 -95 -3 -22 -8 -74
-11 -115 -3 -41 -8 -93 -10 -115 -2 -22 -7 -65 -10 -95 -3 -30 -7 -71 -10 -90
-2 -19 -7 -75 -10 -124 -4 -50 -8 -97 -10 -107 -2 -9 -6 -56 -10 -105 -3 -49
-8 -100 -10 -114 -2 -14 -7 -58 -10 -97 -4 -40 -8 -81 -10 -90 -2 -10 -4 -38
-4 -62 -1 -24 -4 -42 -7 -38 -4 3 -8 91 -9 194 -2 103 -6 323 -10 488 -3 165
-8 386 -10 490 -2 105 -7 323 -10 485 -4 162 -8 356 -9 430 l-3 135 -155 3
-155 2 18 -70z"/>
<path d="M4603 3888 c22 -75 27 -194 13 -303 -3 -27 -8 -72 -11 -100 -3 -27
-7 -70 -10 -95 -3 -25 -7 -67 -9 -95 -2 -27 -7 -68 -10 -90 -3 -22 -8 -69 -11
-105 -3 -36 -7 -78 -9 -95 -2 -16 -7 -64 -11 -105 -4 -41 -9 -86 -10 -100 -2
-14 -6 -56 -9 -95 -4 -38 -9 -86 -11 -105 -9 -75 -17 -147 -20 -190 -2 -25 -6
-65 -9 -90 -6 -46 -11 -99 -21 -205 -3 -33 -7 -73 -9 -90 -2 -16 -6 -61 -10
-100 -3 -38 -8 -86 -11 -105 -2 -19 -7 -62 -10 -95 -3 -33 -8 -78 -11 -100 -2
-22 -6 -62 -9 -90 -2 -27 -7 -70 -10 -95 -3 -25 -7 -70 -10 -100 -2 -30 -6
-75 -9 -100 -3 -25 -8 -72 -11 -105 -3 -33 -8 -71 -10 -85 -2 -14 -6 -61 -10
-104 -4 -43 -8 -86 -10 -95 -1 -9 -6 -52 -9 -96 -8 -95 -14 -154 -22 -215 -3
-25 -8 -67 -10 -95 -13 -152 -23 -241 -29 -273 -5 -22 -5 -22 135 -22 105 0
140 3 141 13 1 6 2 23 4 37 1 14 6 54 9 90 4 36 8 79 10 95 3 17 7 59 10 95 3
36 8 76 11 90 2 14 7 54 10 90 4 36 8 81 11 100 2 19 6 60 9 90 3 30 8 71 10
90 3 19 7 64 10 100 7 79 15 133 22 140 2 3 92 5 199 5 l194 0 1 -65 c1 -36 3
-94 4 -130 1 -36 6 -162 9 -280 4 -118 9 -267 11 -330 2 -63 5 -141 6 -173 l1
-57 145 0 145 0 -6 202 c-4 112 -9 255 -11 318 -2 63 -6 194 -10 290 -3 96 -8
243 -10 325 -3 83 -7 218 -10 300 -3 83 -7 215 -10 295 -5 158 -13 386 -20
605 -3 77 -7 208 -10 290 -3 83 -7 206 -10 275 -2 69 -7 213 -10 320 -4 107
-8 240 -10 295 -2 55 -5 144 -6 198 l-3 97 -332 0 -332 0 21 -72z m383 -614
c3 -66 16 -447 19 -549 1 -60 6 -209 10 -330 10 -305 12 -357 15 -460 l3 -90
-157 -3 -157 -3 6 63 c3 35 8 79 10 98 2 19 7 62 10 95 3 33 8 71 10 85 2 14
6 54 10 90 3 36 8 81 10 100 10 81 17 147 20 185 3 43 14 144 20 185 5 37 14
118 20 180 6 62 14 131 20 175 2 17 7 60 10 97 4 37 8 75 10 85 2 10 4 21 4
24 1 3 25 5 54 4 50 -1 52 -2 53 -31z"/>
<path d="M5580 3953 c0 -5 10 -46 23 -93 24 -92 25 -116 13 -480 -4 -107 -9
-271 -12 -365 -2 -93 -6 -222 -9 -285 -2 -63 -6 -207 -9 -320 -4 -113 -8 -268
-11 -345 -3 -77 -7 -216 -10 -310 -3 -93 -7 -231 -10 -305 -4 -121 -8 -277
-20 -680 -2 -69 -7 -215 -10 -325 -4 -110 -7 -220 -8 -245 l-2 -45 155 0 154
0 2 85 c2 82 10 307 19 515 2 55 7 181 11 280 4 99 8 207 9 240 1 33 3 84 4
113 l1 52 283 0 c155 0 287 4 292 8 28 20 74 143 90 240 3 17 7 44 10 60 9 57
15 153 20 317 12 419 15 509 20 650 3 83 8 238 11 345 3 107 7 242 9 300 2 58
6 210 9 339 4 128 8 239 9 245 1 8 -143 12 -520 14 -288 1 -523 -1 -523 -5z
m701 -652 c3 0 5 -13 3 -28 -2 -16 -6 -109 -10 -208 -8 -226 -10 -280 -19
-490 -4 -93 -9 -210 -10 -260 -2 -49 -4 -119 -5 -155 l-3 -65 -167 0 -167 0 3
110 c2 61 6 200 8 310 5 178 15 577 19 725 1 30 5 57 9 60 6 5 318 5 339 1z"/>
<path d="M1581 1174 c0 -11 3 -14 6 -6 3 7 2 16 -1 19 -3 4 -6 -2 -5 -13z"/>
</g>
</svg>
